<svg width="139" height="32" viewBox="0 0 139 32" fill="none" xmlns="http://www.w3.org/2000/svg">
<g clip-path="url(#clip0_7_1166)">
<path d="M42.8 21.1C42.4 21.2 41.9 21.3 41.4 21.3C40.4 21.3 40 20.7 40 19.7V15.2H42.8C43.5 15.2 44.2 14.7 44.2 13.9C44.2 13.1 43.6 12.6 42.8 12.6H40V11.1C40 10.2 39.3 9.6 38.5 9.6C37.7 9.6 37 10.3 37 11.1V19.8C37 22.3 38.2 24.1 41 24.1C41.8 24.1 42.9 24 43.7 23.6C44.4 23.3 44.6 22.8 44.6 22.3C44.6 21.6 43.9 20.9 42.8 21.1ZM52.8 12.2C52.4 12.1 51.6 12 50.9 12C48.4 12 47 13.5 47 15.8V22.6C47 23.4 47.7 24.1 48.5 24.1C49.3 24.1 50 23.4 50 22.6V16.4C50 15.4 50.4 15 51.1 15C51.8 15 52.2 15.2 52.8 15.2C53.7 15.2 54.2 14.4 54.2 13.8C54.1 13 53.7 12.5 52.8 12.2ZM61.1 12C58.3 12 56.3 13.8 56 16.7C56 17.4 55.9 18.6 56 19.5C56.2 22.3 58.2 24.2 61.2 24.2C62.6 24.2 63.9 23.9 64.7 23.4C65.3 23 65.4 22.6 65.4 22.2C65.4 21.4 64.7 20.6 63.5 21C62.8 21.3 62 21.5 61.2 21.5C59.8 21.5 58.7 20.8 58.7 19.4V19.1H64.4C65.4 19.1 65.9 18.5 65.9 17.6V17.1C66 14 64 12 61.1 12ZM63 17.1H58.8C58.8 15.6 59.5 14.6 61.1 14.6C62.5 14.6 63.3 15.5 63.2 16.8C63.2 17 63.2 17.1 63 17.1ZM73.1 12C70.3 12 68.3 13.8 68 16.7C68 17.4 67.9 18.6 68 19.5C68.2 22.3 70.2 24.2 73.2 24.2C74.6 24.2 75.9 23.9 76.7 23.4C77.3 23 77.4 22.6 77.4 22.2C77.4 21.4 76.7 20.6 75.5 21C74.8 21.3 74 21.5 73.2 21.5C71.8 21.5 70.7 20.8 70.7 19.4V19.1H76.4C77.4 19.1 77.9 18.5 77.9 17.6V17.1C78 14 76 12 73.1 12ZM75 17.1H70.8C70.8 15.6 71.5 14.6 73.1 14.6C74.5 14.6 75.3 15.5 75.2 16.8C75.2 17 75.2 17.1 75 17.1ZM123.6 17L122 16.6C121 16.4 120.7 16.1 120.7 15.6C120.7 15.1 121.2 14.7 122.3 14.7C122.9 14.7 123.6 14.9 124.2 15.2C124.9 15.6 125.7 15.5 126.1 15C126.6 14.5 126.6 13.6 126 13C125.2 12.4 123.8 12 122.4 12C119.8 12 117.9 13.3 117.9 15.7C117.9 17.6 119.3 18.6 121.1 19.1C122 19.3 121.9 19.3 122.7 19.5C123.6 19.7 124 20.1 124 20.5C124 21.1 123.5 21.5 122.3 21.5C121.3 21.5 120.4 21.2 119.7 20.8C119 20.3 118.2 20.5 117.8 21.1C117.4 21.7 117.5 22.5 118.1 22.9C118.9 23.6 120.2 24.2 122.3 24.2C124.9 24.2 126.9 22.8 126.9 20.4C126.9 18.6 125.8 17.5 123.6 17ZM137.5 19.1C138.5 19.1 139 18.5 139 17.6V17.1C139 14 137 12 134.1 12C131.3 12 129.3 13.8 129 16.7C129 17.4 128.9 18.6 129 19.5C129.2 22.3 131.2 24.2 134.2 24.2C135.6 24.2 136.9 23.9 137.7 23.4C138.3 23 138.4 22.6 138.4 22.2C138.4 21.4 137.7 20.6 136.5 21C135.8 21.3 135 21.5 134.2 21.5C132.8 21.5 131.7 20.8 131.7 19.4V19.1H137.5ZM134.1 14.6C135.5 14.6 136.3 15.5 136.2 16.8C136.2 17 136.1 17.1 136 17.1H131.8C131.8 15.6 132.6 14.6 134.1 14.6ZM97.5 12C94.5 12 92.3 13.9 92 16.5C91.9 17.4 91.9 18.8 92 19.7C92.2 22.3 94.5 24.2 97.5 24.2C100.5 24.2 102.7 22.3 102.9 19.7C103 18.8 103 17.5 102.9 16.6C102.7 13.9 100.5 12 97.5 12ZM99.9 19.2C99.8 20.5 98.9 21.3 97.5 21.3C96.1 21.3 95.2 20.4 95.1 19.2C95.1 18.6 95.1 17.6 95.1 17C95.2 15.7 96.1 14.9 97.5 14.9C98.9 14.9 99.8 15.8 99.9 17C100 17.6 100 18.6 99.9 19.2ZM85.6 12C84.5 12 83.3 12.4 82.9 12.9V9.7C82.9 8.8 82.3 8.2 81.5 8.2C80.7 8.2 80.1 8.9 80.1 9.7V22.6C80.1 23.4 80.8 24.1 81.6 24.1C82.4 24.1 83 23.4 83 22.6V15.9C83.5 15.4 84.3 15 85.3 15C86.5 15 87.2 15.7 87.2 17.1V22.6C87.2 23.5 87.8 24.2 88.6 24.2C89.5 24.2 90.1 23.5 90.1 22.6V16.9C90 13.7 88.4 12 85.6 12ZM113.6 12.1C112.8 12.1 112.1 12.8 112.1 13.6V20.7C111.6 21 110.9 21.3 110 21.3C108.8 21.3 107.9 20.6 107.9 19.2V13.6C107.9 12.7 107.2 12 106.4 12C105.5 12 105 12.7 105 13.6V19.3C105 22.4 106.8 24.1 109.9 24.1C112.2 24.1 113.8 23.3 114.5 22.8C114.9 22.6 115 22.3 115 21.8V13.6C115 12.8 114.4 12.1 113.6 12.1Z" fill="black"/>
<path d="M26 5.9C24.9 5.3 23.2 6.3 22.2 8.1L20.3 11.3C19.6 12.6 19.7 14.2 20.6 15.5L20.7 15.6C21.6 16.8 22.7 18 23.1 18.4C23.3 18.6 23.5 18.9 23.6 19.3C23.9 20.4 23.3 21.6 22.1 21.9C21 22.2 19.8 21.6 19.5 20.4C19.4 20.1 19.4 19.8 19.4 19.6C19.5 19.1 19.3 18.4 18.6 17.6C17.9 16.9 16.6 18.3 16.1 19.7V19.8C15.7 21.2 15.4 22.5 15.5 22.6C15.5 22.7 15.6 22.7 15.6 22.8C16.2 24 15.8 25.4 14.6 26C13.4 26.6 12 26.2 11.4 25C10.8 23.8 11.2 22.4 12.4 21.8C12.5 21.8 12.5 21.7 12.6 21.7C12.7 21.7 12.9 21.1 13.2 20.3C13.4 19.6 13.5 19.3 13.6 19C13.7 18.6 13.9 17.6 13.8 17.2C13.7 16.7 13.2 16.7 12.7 17C12.4 17.2 11.8 17.7 11.6 17.9C11.1 18.3 10.7 18.9 10.5 19.4C10.4 19.6 10.2 19.9 10 20.1C9.1 20.8 7.8 20.7 7 19.8C6.3 18.9 6.4 17.6 7.3 16.8C7.6 16.6 7.9 16.4 8.2 16.4C8.7 16.3 10.5 15.2 11.6 14.4C11.8 14.3 12.1 14 12.2 13.9C12.5 13.5 12.2 13.2 11.9 13.2C11 13.3 10 13.4 9.8 13.7C9.7 13.8 9.6 14 9.4 14.1C8.6 14.7 7.4 14.5 6.8 13.7C6.2 12.9 6.4 11.7 7.2 11.1C7.5 10.8 8 10.7 8.3 10.7C9 10.7 10.8 11.1 12.2 10.8L12.6 10.7C14.1 10.4 15.9 9.1 16.6 7.8C16.6 7.8 17.3 6.6 18.1 5.1C19 3.6 18.9 1.9 18 1.4L16.3 0.400002C15.4 -0.0999985 14.1 -0.0999985 13.2 0.400002L1.6 7C0.7 7.5 0 8.7 0 9.7V22.5C0 23.5 0.7 24.7 1.6 25.2L13.2 31.8C14.1 32.3 15.5 32.3 16.3 31.8L27.9 25.2C28.8 24.7 29.5 23.5 29.5 22.5V9.7C29.5 8.7 28.8 7.5 27.9 7C27.9 7 27.1 6.5 26 5.9Z" fill="#109335"/>
</g>
<defs>
<clipPath id="clip0_7_1166">
<rect width="139" height="32" fill="white"/>
</clipPath>
</defs>
</svg>
